<svg width="80" height="80" viewBox="0 0 80 80" fill="none" xmlns="http://www.w3.org/2000/svg">
<rect width="80" height="80" rx="8" fill="#8949FF"/>
<g clip-path="url(#clip0_859_1868)">
<path d="M69.7505 46.7481L70 43.27V39.4258C70 34.7496 69.3513 30.7224 68.0538 27.3441C66.7563 23.9493 64.9931 21.1702 62.7308 18.9735C60.4685 16.7768 57.8902 15.1626 54.9626 14.0975C52.0349 13.0491 48.9409 12.5166 45.664 12.5166C40.5739 12.5166 36.1492 13.6815 32.3898 15.9947C28.6138 18.3245 25.6862 21.5529 23.6069 25.6966C21.7605 29.3578 20.7291 33.5514 20.5129 38.2443C18.8661 39.1596 11.1311 44.1187 10 56.9659H19.7477C19.7477 56.9659 19.4816 52.2897 21.3945 48.5287C21.9102 50.7254 22.6421 52.7556 23.5902 54.6361C25.6695 58.7466 28.6471 61.9084 32.5062 64.1384C36.382 66.3683 40.9731 67.4833 46.3127 67.4833C50.4547 67.4833 54.1309 66.8509 57.3413 65.5862C60.5517 64.3214 63.1966 62.5408 65.2592 60.2443C66.1076 59.3124 66.8062 58.2806 67.4217 57.2155L56.1436 53.6709C55.8775 54.0037 55.5947 54.3199 55.2786 54.6195C54.1974 55.6346 52.8999 56.4001 51.4361 56.9326C49.9556 57.4485 48.3088 57.7148 46.4791 57.7148C43.751 57.7148 41.3723 57.1323 39.3429 55.9674C37.3136 54.8025 35.7333 53.1051 34.6022 50.9084C33.5708 48.8948 33.0385 46.4985 32.9387 43.7693L46.163 39.3426L69.7339 46.7647L69.7505 46.7481ZM39.0768 24.1323C41.023 22.9009 43.2686 22.2851 45.8303 22.2851C48.2257 22.2851 50.3382 22.8343 52.1514 23.916C53.9645 24.9977 55.3784 26.4954 56.3931 28.3759C57.2082 29.8903 57.6906 31.5877 57.8736 33.4349L46.163 29.7405L32.9886 34.1505C33.1716 32.3199 33.6873 30.5892 34.5356 29.0083C35.6169 27.0113 37.1139 25.3971 39.0602 24.149" fill="#FCC63D"/>
</g>
<defs>
<clipPath id="clip0_859_1868">
<rect width="60" height="55" fill="white" transform="translate(10 12.5)"/>
</clipPath>
</defs>
</svg>
