<svg width="64" height="64" viewBox="0 0 64 64" fill="none" xmlns="http://www.w3.org/2000/svg">
<path d="M0 16C0 7.16344 7.16344 0 16 0H48C56.8366 0 64 7.16344 64 16V48C64 56.8366 56.8366 64 48 64H16C7.16344 64 0 56.8366 0 48V16Z" fill="#FFDF80"/>
<path d="M36.0562 33.0383L37.8237 42.9853C37.8435 43.1025 37.8271 43.2228 37.7766 43.3304C37.7261 43.4379 37.644 43.5275 37.5413 43.5871C37.4386 43.6467 37.3201 43.6735 37.2016 43.664C37.0832 43.6544 36.9706 43.609 36.8787 43.5337L32.702 40.3988C32.5004 40.2482 32.2555 40.1668 32.0038 40.1668C31.7521 40.1668 31.5072 40.2482 31.3055 40.3988L27.1219 43.5325C27.0301 43.6077 26.9175 43.6531 26.7993 43.6626C26.681 43.6722 26.5627 43.6455 26.46 43.586C26.3573 43.5266 26.2752 43.4372 26.2246 43.3299C26.174 43.2226 26.1574 43.1024 26.1769 42.9853L27.9432 33.0383" stroke="#101828" stroke-width="2.33333" stroke-linecap="round" stroke-linejoin="round"/>
<path d="M32 34.3333C35.866 34.3333 39 31.1992 39 27.3333C39 23.4673 35.866 20.3333 32 20.3333C28.134 20.3333 25 23.4673 25 27.3333C25 31.1992 28.134 34.3333 32 34.3333Z" stroke="#101828" stroke-width="2.33333" stroke-linecap="round" stroke-linejoin="round"/>
</svg>
