<svg width="40" height="40" viewBox="0 0 40 40" fill="none" xmlns="http://www.w3.org/2000/svg">
<path d="M0 16C0 7.16344 7.16344 0 16 0H24C32.8366 0 40 7.16344 40 16V24C40 32.8366 32.8366 40 24 40H16C7.16344 40 0 32.8366 0 24V16Z" fill="#8949FF" fill-opacity="0.1"/>
<path d="M26.6663 20.8333C26.6663 25 23.7497 27.0833 20.283 28.2917C20.1015 28.3532 19.9043 28.3502 19.7247 28.2833C16.2497 27.0833 13.333 25 13.333 20.8333V15C13.333 14.779 13.4208 14.567 13.5771 14.4107C13.7334 14.2545 13.9453 14.1667 14.1663 14.1667C15.833 14.1667 17.9163 13.1667 19.3663 11.9C19.5429 11.7492 19.7675 11.6663 19.9997 11.6663C20.2319 11.6663 20.4565 11.7492 20.633 11.9C22.0913 13.175 24.1663 14.1667 25.833 14.1667C26.054 14.1667 26.266 14.2545 26.4223 14.4107C26.5785 14.567 26.6663 14.779 26.6663 15V20.8333Z" stroke="#8949FF" stroke-width="1.66667" stroke-linecap="round" stroke-linejoin="round"/>
<path d="M17.5 20L19.1667 21.6667L22.5 18.3333" stroke="#8949FF" stroke-width="1.66667" stroke-linecap="round" stroke-linejoin="round"/>
</svg>
